<svg width="32" height="32" viewBox="0 0 32 32" fill="none" xmlns="http://www.w3.org/2000/svg">
<path d="M21.9535 31.75V19.5595H26.0363L26.647 14.8205H21.9535V11.7983C21.9535 10.4263 22.335 9.49 24.302 9.49H26.8115V5.24975C25.5966 5.12085 24.3757 5.05834 23.154 5.0625C19.5367 5.0625 17.0605 7.271 17.0605 11.3275V14.8205H12.969V19.5595H17.0605V31.75H2C1.53587 31.75 1.09075 31.5656 0.762563 31.2374C0.434374 30.9093 0.25 30.4641 0.25 30V2C0.25 1.53587 0.434374 1.09075 0.762563 0.762563C1.09075 0.434374 1.53587 0.25 2 0.25H30C30.4641 0.25 30.9093 0.434374 31.2374 0.762563C31.5656 1.09075 31.75 1.53587 31.75 2V30C31.75 30.4641 31.5656 30.9093 31.2374 31.2374C30.9093 31.5656 30.4641 31.75 30 31.75H21.9535Z" fill="#605F5E"/>
</svg>
