<svg width="36" height="36" viewBox="0 0 36 36" fill="none" xmlns="http://www.w3.org/2000/svg">
<path d="M19.799 0.5C21.7677 0.50525 22.767 0.51575 23.6297 0.54025L23.9692 0.5525C24.3612 0.5665 24.748 0.584 25.2152 0.605C27.0772 0.6925 28.3477 0.9865 29.4625 1.41875C30.6175 1.86325 31.5905 2.46525 32.5635 3.4365C33.4533 4.31132 34.1419 5.36953 34.5812 6.5375C35.0135 7.65225 35.3075 8.92275 35.395 10.7865C35.416 11.252 35.4335 11.6387 35.4475 12.0325L35.458 12.372C35.4842 13.233 35.4947 14.2322 35.4982 16.201L35.5 17.5065V19.799C35.5043 21.0755 35.4909 22.3519 35.4597 23.628L35.4492 23.9675C35.4352 24.3612 35.4177 24.748 35.3967 25.2135C35.3092 27.0772 35.0117 28.346 34.5812 29.4625C34.1432 30.6311 33.4544 31.6896 32.5635 32.5635C31.6884 33.4531 30.6303 34.1416 29.4625 34.5812C28.3477 35.0135 27.0772 35.3075 25.2152 35.395C24.8 35.4146 24.3846 35.432 23.9692 35.4475L23.6297 35.458C22.767 35.4825 21.7677 35.4947 19.799 35.4982L18.4935 35.5H16.2027C14.9257 35.5044 13.6486 35.491 12.372 35.4597L12.0325 35.4492C11.617 35.4335 11.2017 35.4154 10.7865 35.395C8.92447 35.3075 7.65397 35.0135 6.53747 34.5812C5.36964 34.1427 4.31185 33.454 3.43822 32.5635C2.54755 31.689 1.85836 30.6307 1.41872 29.4625C0.986472 28.3477 0.692472 27.0772 0.604972 25.2135C0.585475 24.7983 0.567975 24.3829 0.552472 23.9675L0.543722 23.628C0.511473 22.3519 0.496889 21.0755 0.499972 19.799V16.201C0.495088 14.9245 0.507923 13.6481 0.538472 12.372L0.550722 12.0325C0.564722 11.6387 0.582222 11.252 0.603222 10.7865C0.690722 8.92275 0.984722 7.654 1.41697 6.5375C1.85642 5.36833 2.54698 4.30979 3.43997 3.4365C4.31338 2.54658 5.37047 1.85798 6.53747 1.41875C7.65397 0.9865 8.92272 0.6925 10.7865 0.605C11.252 0.584 11.6405 0.5665 12.0325 0.5525L12.372 0.542C13.6481 0.510907 14.9245 0.497489 16.201 0.50175L19.799 0.5ZM18 9.25C15.6793 9.25 13.4537 10.1719 11.8128 11.8128C10.1718 13.4538 9.24997 15.6794 9.24997 18C9.24997 20.3206 10.1718 22.5462 11.8128 24.1872C13.4537 25.8281 15.6793 26.75 18 26.75C20.3206 26.75 22.5462 25.8281 24.1872 24.1872C25.8281 22.5462 26.75 20.3206 26.75 18C26.75 15.6794 25.8281 13.4538 24.1872 11.8128C22.5462 10.1719 20.3206 9.25 18 9.25ZM18 12.75C18.6894 12.7499 19.3721 12.8856 20.0091 13.1493C20.6461 13.413 21.225 13.7996 21.7125 14.2871C22.2001 14.7745 22.5869 15.3532 22.8509 15.9901C23.1148 16.627 23.2507 17.3097 23.2508 17.9991C23.251 18.6886 23.1153 19.3713 22.8516 20.0083C22.5878 20.6453 22.2012 21.2241 21.7138 21.7117C21.2264 22.1993 20.6477 22.5861 20.0107 22.85C19.3738 23.114 18.6912 23.2499 18.0017 23.25C16.6093 23.25 15.274 22.6969 14.2894 21.7123C13.3048 20.7277 12.7517 19.3924 12.7517 18C12.7517 16.6076 13.3048 15.2723 14.2894 14.2877C15.274 13.3031 16.6093 12.75 18.0017 12.75M27.1892 6.625C26.6091 6.625 26.0527 6.85547 25.6424 7.2657C25.2322 7.67594 25.0017 8.23234 25.0017 8.8125C25.0017 9.39266 25.2322 9.94906 25.6424 10.3593C26.0527 10.7695 26.6091 11 27.1892 11C27.7694 11 28.3258 10.7695 28.736 10.3593C29.1463 9.94906 29.3767 9.39266 29.3767 8.8125C29.3767 8.23234 29.1463 7.67594 28.736 7.2657C28.3258 6.85547 27.7694 6.625 27.1892 6.625Z" fill="#605F5E"/>
</svg>
