<svg width="32" height="36" viewBox="0 0 32 36" fill="none" xmlns="http://www.w3.org/2000/svg">
<path d="M23 11.4288V24.125C22.9995 26.4876 22.2633 28.7914 20.8938 30.7165C19.5242 32.6416 17.5892 34.0925 15.3574 34.8677C13.1256 35.6429 10.7078 35.704 8.43979 35.0424C6.17173 34.3808 4.16594 33.0295 2.70094 31.176C1.23593 29.3224 0.384422 27.0587 0.264635 24.6992C0.144848 22.3397 0.762732 20.0014 2.03249 18.009C3.30225 16.0167 5.16087 14.4691 7.35027 13.5813C9.53967 12.6934 11.9512 12.5093 14.25 13.0545V18.5898C13.0509 18.021 11.6996 17.8571 10.3993 18.1226C9.09902 18.3882 7.92017 19.0689 7.04018 20.0623C6.16018 21.0557 5.62664 22.3081 5.51986 23.6309C5.41308 24.9537 5.73884 26.2755 6.4481 27.3972C7.15736 28.5189 8.21175 29.3798 9.4526 29.8505C10.6934 30.3212 12.0536 30.3762 13.3284 30.0071C14.6031 29.638 15.7236 28.8649 16.521 27.8041C17.3184 26.7433 17.7497 25.4521 17.75 24.125V0.5H23C23 2.82064 23.9219 5.04624 25.5628 6.68718C27.2038 8.32813 29.4294 9.25 31.75 9.25V14.5C28.5683 14.5048 25.4807 13.421 23 11.4288Z" fill="#605F5E"/>
</svg>
