<svg width="36" height="28" viewBox="0 0 36 28" fill="none" xmlns="http://www.w3.org/2000/svg">
<path d="M18.427 0C19.3615 0.00525 21.6995 0.0279999 24.1845 0.12775L25.0665 0.16625C27.5673 0.2835 30.0663 0.4865 31.307 0.83125C32.9608 1.29675 34.2593 2.65125 34.6985 4.36975C35.3985 7.09975 35.486 12.4233 35.4965 13.713L35.4983 13.979V14.2835C35.486 15.5732 35.3985 20.8985 34.6985 23.6267C34.254 25.3505 32.9538 26.7067 31.307 27.1652C30.0663 27.51 27.5673 27.713 25.0665 27.8302L24.1845 27.8705C21.6995 27.9685 19.3615 27.993 18.427 27.9965L18.0158 27.9982H17.5695C15.592 27.986 7.3215 27.8967 4.6895 27.1652C3.0375 26.6997 1.73725 25.3452 1.298 23.6267C0.598 20.8967 0.5105 15.5732 0.5 14.2835V13.713C0.5105 12.4233 0.598 7.098 1.298 4.36975C1.7425 2.646 3.04275 1.28975 4.69125 0.833C7.3215 0.0997497 15.5938 0.0105 17.5713 0H18.427ZM14.4983 7.875V20.125L24.9983 14L14.4983 7.875Z" fill="#605F5E"/>
</svg>
